<svg xmlns="http://www.w3.org/2000/svg" viewBox="0 0 800 500" width="800" height="500">
  <!-- Background -->
  <rect width="800" height="500" fill="#1e1e1e"/>
  
  <!-- Türk Yemekleri - Kaliteli Malzemeler -->
  <g>
    <!-- Wooden Cutting Board -->
    <rect x="150" y="150" width="500" height="300" rx="10" fill="#5d4037"/>
    <rect x="160" y="160" width="480" height="280" rx="5" fill="#795548"/>
    
    <!-- Fresh Ingredients -->
    <!-- Dolma (Stuffed Vegetables) -->
    <g transform="translate(250, 250)">
      <ellipse cx="0" cy="0" rx="40" ry="30" fill="#556b2f"/> <!-- Dolma Outer -->
      <ellipse cx="0" cy="-5" rx="30" ry="20" fill="#6b8e23"/> <!-- Dolma Inner -->
      <path d="M-30 0 L-40 10 M30 0 L40 10" stroke="#556b2f" stroke-width="5" stroke-linecap="round"/> <!-- Leaf Extensions -->
    </g>
    
    <!-- Baklava -->
    <g transform="translate(400, 250)">
      <path d="M-40 -30 L40 -30 L40 30 L-40 30 Z" fill="#d4a76a"/> <!-- Baklava Base -->
      <path d="M-40 -30 L0 0 L40 -30 M-40 30 L0 0 L40 30 M-40 -30 L0 0 L-40 30 M40 -30 L0 0 L40 30" stroke="#8b4513" stroke-width="2"/> <!-- Baklava Pattern -->
      <path d="M-35 -25 L35 -25 L35 25 L-35 25 Z" fill="none" stroke="#8b4513" stroke-width="1"/> <!-- Inner Border -->
      <rect x="-30" y="-20" width="60" height="40" fill="rgba(255, 215, 0, 0.3)"/> <!-- Honey Glaze -->
    </g>
    
    <!-- Köfte (Meatballs) -->
    <g transform="translate(550, 250)">
      <circle cx="-20" cy="-10" r="15" fill="#8b4513"/> <!-- Köfte 1 -->
      <circle cx="10" cy="-5" r="15" fill="#8b4513"/> <!-- Köfte 2 -->
      <circle cx="-10" cy="15" r="15" fill="#8b4513"/> <!-- Köfte 3 -->
      <circle cx="20" cy="10" r="15" fill="#8b4513"/> <!-- Köfte 4 -->
      <!-- Spices on Köfte -->
      <circle cx="-25" cy="-15" r="1" fill="#8b0000"/>
      <circle cx="-15" cy="-15" r="1" fill="#8b0000"/>
      <circle cx="5" cy="-10" r="1" fill="#8b0000"/>
      <circle cx="15" cy="-10" r="1" fill="#8b0000"/>
      <circle cx="-15" cy="10" r="1" fill="#8b0000"/>
      <circle cx="-5" cy="20" r="1" fill="#8b0000"/>
      <circle cx="15" cy="5" r="1" fill="#8b0000"/>
      <circle cx="25" cy="15" r="1" fill="#8b0000"/>
    </g>
    
    <!-- Fresh Herbs -->
    <g transform="translate(200, 350)">
      <path d="M0 0 L-10 -30 M0 0 L0 -35 M0 0 L10 -30 M0 0 L-15 -20 M0 0 L15 -20" stroke="#228b22" stroke-width="2" stroke-linecap="round"/> <!-- Herb Stems -->
      <circle cx="-10" cy="-30" r="5" fill="#32cd32"/> <!-- Leaf -->
      <circle cx="0" cy="-35" r="5" fill="#32cd32"/> <!-- Leaf -->
      <circle cx="10" cy="-30" r="5" fill="#32cd32"/> <!-- Leaf -->
      <circle cx="-15" cy="-20" r="5" fill="#32cd32"/> <!-- Leaf -->
      <circle cx="15" cy="-20" r="5" fill="#32cd32"/> <!-- Leaf -->
    </g>
    
    <!-- Spices -->
    <g transform="translate(300, 350)">
      <circle cx="0" cy="0" r="20" fill="#cd853f"/> <!-- Spice Bowl -->
      <circle cx="0" cy="-5" r="15" fill="#d2691e"/> <!-- Spice Inside -->
      <circle cx="-5" cy="-10" r="2" fill="#8b0000"/> <!-- Red Spice -->
      <circle cx="5" cy="-10" r="2" fill="#ffd700"/> <!-- Yellow Spice -->
      <circle cx="0" cy="-5" r="2" fill="#8b4513"/> <!-- Brown Spice -->
    </g>
    
    <!-- Olive Oil -->
    <g transform="translate(400, 350)">
      <path d="M-10 0 L-5 -40 L5 -40 L10 0 Z" fill="rgba(255, 255, 0, 0.5)"/> <!-- Bottle -->
      <path d="M-5 -40 L5 -40 L5 -45 L-5 -45 Z" fill="#2f4f4f"/> <!-- Bottle Cap -->
      <rect x="-10" y="0" width="20" height="5" rx="2" fill="#2f4f4f"/> <!-- Bottle Base -->
    </g>
  </g>
  
  <!-- Text -->
  <text x="400" y="120" font-family="Arial" font-size="24" fill="#ffffff" text-anchor="middle" font-weight="bold">Kaliteli Malzemeler</text>
  <text x="400" y="150" font-family="Arial" font-size="16" fill="#cccccc" text-anchor="middle">Tüm yemeklerimiz taze ve kaliteli malzemelerle hazırlanmaktadır</text>
</svg>